<svg id="white" xmlns="http://www.w3.org/2000/svg" width="383.17" height="290.76" viewBox="0 0 383.17 290.76"><defs><style>.cls-1{fill:#fff;}</style></defs><path class="cls-1" d="M39.69.14V11H25.55V80H14.14V11H0V.14Z" transform="translate(0.04 0.02)"/><path class="cls-1" d="M45.51,22.13c0-6.05.46-11.86,5.93-17A19.86,19.86,0,0,1,65.47,0a19.88,19.88,0,0,1,14,5.13c5.47,5.13,5.93,11,5.93,17V60c0,6-.46,11.86-5.93,17a19.86,19.86,0,0,1-14,5.13,19.86,19.86,0,0,1-14-5.13C46,71.86,45.51,66,45.51,60ZM74,20.42c0-2.4-.22-4.79-2.4-7a9.45,9.45,0,0,0-12.31,0c-2.17,2.17-2.4,4.56-2.4,7V61.71c0,2.39.23,4.79,2.4,6.95a9.42,9.42,0,0,0,12.31,0C73.79,66.5,74,64.1,74,61.71Z" transform="translate(0.04 0.02)"/><path class="cls-1" d="M98.66.14h11.4l15.74,44h.46L141.2.14h11.41V80h-11.4V30h-.57l-12,36.05h-6l-12-36h-.57V80H98.66Z" transform="translate(0.04 0.02)"/><path class="cls-1" d="M165.84,22.13c0-6.05.46-11.86,5.93-17a21.75,21.75,0,0,1,28.06,0c5.48,5.13,5.93,11,5.93,17V60c0,6-.45,11.86-5.93,17a21.75,21.75,0,0,1-28.06,0c-5.47-5.13-5.93-10.95-5.93-17Zm28.52-1.71c0-2.4-.23-4.79-2.4-7a9.46,9.46,0,0,0-12.32,0c-2.17,2.17-2.4,4.56-2.4,7V61.71c0,2.39.23,4.79,2.4,6.95a9.44,9.44,0,0,0,12.32,0c2.17-2.16,2.4-4.56,2.4-6.95Z" transform="translate(0.04 0.02)"/><path class="cls-1" d="M230.4.14V34.47h15.4V.14h11.41V80H245.8V44.74H230.4V80H219V.14Z" transform="translate(0.04 0.02)"/><path class="cls-1" d="M282.3.14V80H270.89V.14Z" transform="translate(0.04 0.02)"/><path class="cls-1" d="M322.33,21.1c0-1.71-.11-5-1.94-7.3a7.19,7.19,0,0,0-6-2.62,7.62,7.62,0,0,0-5.59,2.17c-2.17,2.28-2.4,5.47-2.4,8.1,0,2.16.34,6.15,1.82,8.32,1.26,1.94,3.54,2.85,5.25,3.54l7,2.51c3.42,1.25,7.41,2.73,10.38,6.84s3.42,8.78,3.42,13.8V59.2c0,8.1-2.17,14.25-5.47,17.68-3,3.08-8.22,5.24-14.83,5.24-8.1,0-13.35-3.3-16-7-3.65-4.9-3.65-12.43-3.65-13.45V59.08h11.41v2.17c0,1.82.22,5,1.82,7.07a7.79,7.79,0,0,0,6.27,2.62c4.34,0,6.28-1.71,7.19-2.85,1.71-2.16,1.82-5.47,1.82-7.87v-3c0-2.74-.34-6.16-1.82-8.22s-4.22-3.07-5.48-3.53l-8.32-3c-4.1-1.48-8.21-3.53-10.49-8.9C295.07,30,295,26,295,22V19.73A20.29,20.29,0,0,1,300.89,4.9c3.77-3.65,8.56-4.9,13.8-4.9,11.41,0,19.05,7.42,19.05,20.65v2.62H322.33Z" transform="translate(0.04 0.02)"/><path class="cls-1" d="M371.72,80,368,62.87h-14.6L349.59,80h-11.4L355.64.14h10L383.13,80Zm-11.29-57.6L354.5,52.72h12.09Z" transform="translate(0.04 0.02)"/><path class="cls-1" d="M.21,122.45c0-6.15.47-12.06,6-17.28A20.22,20.22,0,0,1,20.51,100a20.21,20.21,0,0,1,14.26,5.22c5.57,5.22,6,11.13,6,17.28V161c0,6.14-.46,12.06-6,17.28a20.25,20.25,0,0,1-14.26,5.21,20.25,20.25,0,0,1-14.27-5.21C.68,173,.21,167.09.21,161Zm29-1.74c0-2.44-.23-4.87-2.43-7.08a8.69,8.69,0,0,0-6.26-2.32,8.7,8.7,0,0,0-6.27,2.32c-2.2,2.2-2.43,4.64-2.43,7.08v42c0,2.43.23,4.87,2.43,7.07a8.66,8.66,0,0,0,6.27,2.32,8.63,8.63,0,0,0,6.26-2.32c2.2-2.2,2.43-4.64,2.43-7.07Z" transform="translate(0.04 0.02)"/><path class="cls-1" d="M81,121.4c0-1.74-.12-5.1-2-7.42a7.35,7.35,0,0,0-6.15-2.67,7.79,7.79,0,0,0-5.68,2.2c-2.2,2.32-2.44,5.57-2.44,8.24,0,2.2.35,6.26,1.86,8.46,1.28,2,3.6,2.9,5.33,3.6l7.08,2.55c3.48,1.28,7.54,2.79,10.55,7s3.48,8.93,3.48,14v2.79c0,8.23-2.2,14.5-5.57,18-3,3.13-8.34,5.34-15.07,5.34-8.23,0-13.57-3.37-16.24-7.08-3.71-5-3.71-12.64-3.71-13.68V160h11.6v2.2c0,1.86.23,5.1,1.86,7.19a7.92,7.92,0,0,0,6.38,2.67c4.4,0,6.37-1.74,7.3-2.9,1.74-2.2,1.86-5.57,1.86-8v-3c0-2.79-.35-6.27-1.86-8.35s-4.29-3.14-5.56-3.6l-8.47-3c-4.17-1.51-8.35-3.6-10.67-9.05-1.62-3.71-1.74-7.77-1.74-11.83V120a20.56,20.56,0,0,1,6-15.07c3.83-3.71,8.7-5,14-5,11.6,0,19.37,7.54,19.37,21v2.67H81Z" transform="translate(0.04 0.02)"/><path class="cls-1" d="M131.25,182.29l-3.82-17.4H112.58l-3.82,17.4H97.16l17.75-81.18h10.2l17.74,81.18Zm-11.48-58.57-6,30.85H126Z" transform="translate(0.04 0.02)"/><path class="cls-1" d="M13.18,203.41l7,54.39h.5l10-54.39H40L50,257.8h.75l6.73-54.39H70.69L57,290.74H45.74l-10-56.39h-.87l-10,56.39H13.68L0,203.41Z" transform="translate(0.04 0.02)"/><path class="cls-1" d="M105.5,290.74,101.38,272h-16L81.3,290.74H68.82l19.09-87.33h11L118,290.74Zm-12.35-63-6.49,33.18H99.89Z" transform="translate(0.04 0.02)"/></svg>